# xmcd
#
# Track frame offsets: 
#        182
#        35375
#        72885
#        98492
#        123767
#        162240
#        180090
#        205802
#        230312
#        260937
#        287685
#        307330
#
# Disc length: 4465 seconds
#
# Revision: 6
# Processed by: cddbd v1.5.2PL0 Copyright (c) Steve Scherf et al.
# Submitted via: ExactAudioCopy v1.0b1
#
DISCID=9f116f0c
DTITLE=Lipps Inc. - Funkyworld The Best Of
DYEAR=1992
DGENRE=Disco
TTITLE0=Funkytown
TTITLE1=All Night Dancing
TTITLE2=Rock It
TTITLE3=How Long
TTITLE4=Tight Pair
TTITLE5=Jazzy
TTITLE6=Designer Music
TTITLE7=Hold Me Down
TTITLE8=Addicted To The Night
TTITLE9=Choir Practice
TTITLE10=Does Anybody Know Me
TTITLE11=Hit The Deck
EXTD=YEAR: 1992
EXTT0=
EXTT1=
EXTT2=
EXTT3=
EXTT4=
EXTT5=
EXTT6=
EXTT7=
EXTT8=
EXTT9=
EXTT10=
EXTT11=
PLAYORDER=
